{"title":"RoboCop Official Trailer (2014) - Samuel L. Jackson, Gary Oldman","uid":8909628,"size":29689074,"categoryP":"video","categoryS":"movie_clips","magnet":"?xt=urn:btih:9da8c86419947188d7ac1f270041c7c2e55f4eea&amp;dn=RoboCop+Official+Trailer+%282014%29+-+Samuel+L.+Jackson%2C+Gary+Oldman&amp;tr=udp%3A%2F%2Ftracker.openbittorrent.com%3A80&amp;tr=udp%3A%2F%2Fopen.demonii.com%3A1337&amp;tr=udp%3A%2F%2Ftracker.coppersurfer.tk%3A6969&amp;tr=udp%3A%2F%2Fexodus.desync.com%3A6969","seeders":2,"leechers":0,"uploader":"Palash995","files":1,"time":1378945041,"description":"RoboCop Official Trailer (2014) - Samuel L. Jackson, Gary Oldman - HD 720P - By Palash\n\nRelease Date: February 7, 2014 \nStudio: Columbia Pictures (Sony), MGM \nDirector: Jose Padilha \nScreenwriter: Josh Zetumer, Nick Schenk \nStarring: Joel Kinnaman, Gary Oldman, Michael Keaton, Samuel L. Jackson, Abbie Cornish, Jackie Earle Haley, Michael K. Williams, Jay Baruchel, Jennifer Ehle, Marianne Jean-Baptiste \nGenre: Action, Adventure, Sci-Fi, Thriller \nMPAA Rating: Not Available \n\nPlot Summary: \nIn &quot;RoboCop,&quot; the year is 2028 and multinational conglomerate OmniCorp is at the center of robot technology. Their drones are winning American wars around the globe and now they want to bring this technology to the home front. Alex Murphy (Kinnaman) is a loving husband, father and good cop doing his best to stem the tide of crime and corruption in Detroit. After he is critically injured in the line of duty, OmniCorp utilizes their remarkable science of robotics to save Alex's life. He returns to the streets of his beloved city with amazing new abilities, but with issues a regular man has never had to face before.\n\nMedia Info:-\n\nGeneral \nComplete name : RoboCop Official Trailer (2014) - Samuel L. Jackson, Gary Oldman - HD 720P - By Palash.MP4 \nFormat : MPEG-4 \nFormat profile : Base Media / Version 2 \nCodec ID : mp42 \nFile size : 28.3 MiB \nDuration : 2mn 19s \nOverall bit rate mode : Variable \nOverall bit rate : 1 705 Kbps \nEncoded date : UTC 2013-09-05 08:08:15 \nTagged date : UTC 2013-09-05 08:08:15 \ngsst : 0 \ngstd : 139318 \ngssd : BADC234A3HH1378975131448798\n\nVideo \nID : 1 \nFormat : AVC \nFormat/Info : Advanced Video Codec \nFormat profile : &lt;a class=&quot;__cf_email__&quot; href=&quot;/cdn-cgi/l/email-protection&quot; data-cfemail=&quot;92dafbf5fad2dea1bca3&quot;&gt;[email&amp;#160;protected]&lt;/a&gt;&lt;script cf-hash='f9e31' type=&quot;text/javascript&quot;&gt;\n/* &lt;![CDATA[ */!function(){try{var t=&quot;currentScript&quot;in document?document.currentScript:function(){for(var t=document.getElementsByTagName(&quot;script&quot;),e=t.length;e--;)if(t[e].getAttribute(&quot;cf-hash&quot;))return t[e]}();if(t&amp;&amp;t.previousSibling){var e,r,n,i,c=t.previousSibling,a=c.getAttribute(&quot;data-cfemail&quot;);if(a){for(e=&quot;&quot;,r=parseInt(a.substr(0,2),16),n=2;a.length-n;n+=2)i=parseInt(a.substr(n,2),16)^r,e+=String.fromCharCode(i);e=document.createTextNode(e),c.parentNode.replaceChild(e,c)}}}catch(u){}}();/* ]]&gt; */&lt;/script&gt; \nFormat settings, CABAC : Yes \nFormat settings, ReFrames : 1 frame \nCodec ID : avc1 \nCodec ID/Info : Advanced Video Coding \nDuration : 2mn 19s \nBit rate : 1 511 Kbps \nMaximum bit rate : 3 936 Kbps \nWidth : 1 280 pixels \nHeight : 544 pixels \nDisplay aspect ratio : 2.35:1 \nFrame rate mode : Constant \nFrame rate : 23.976 fps \nColor space : YUV \nChroma subsampling : 4:2:0 \nBit depth : 8 bits \nScan type : Progressive \nBits/(Pixel*Frame) : 0.091 \nStream size : 25.1 MiB (89%) \nTagged date : UTC 2013-09-05 08:08:18 \n\nAudio \nID : 2 \nFormat : AAC \nFormat/Info : Advanced Audio Codec \nFormat profile : LC \nCodec ID : 40 \nDuration : 2mn 19s \nBit rate mode : Variable \nBit rate : 192 Kbps \nMaximum bit rate : 201 Kbps \nChannel(s) : 2 channels \nChannel positions : Front: L R \nSampling rate : 44.1 KHz \nCompression mode : Lossy \nStream size : 3.19 MiB (11%) \nTitle : IsoMedia File Produced by Google, 5-11-2011 \nEncoded date : UTC 2013-09-05 08:08:16 \nTagged date : UTC 2013-09-05 08:08:18 \n\nScreenshots:-\n &lt;a href=&quot;\nhttps://yuq.me/users/26/528/nZt7VjXE9f.png&quot; rel=&quot;nofollow&quot; target=&quot;_NEW&quot;&gt;\nhttps://yuq.me/users/26/528/nZt7VjXE9f.png&lt;/a&gt;\n &lt;a href=&quot;\nhttps://yuq.me/users/26/528/QZ3vSuE0an.png&quot; rel=&quot;nofollow&quot; target=&quot;_NEW&quot;&gt;\nhttps://yuq.me/users/26/528/QZ3vSuE0an.png&lt;/a&gt;\n &lt;a href=&quot;\nhttps://yuq.me/users/26/528/YC5WSphTLo.png&quot; rel=&quot;nofollow&quot; target=&quot;_NEW&quot;&gt;\nhttps://yuq.me/users/26/528/YC5WSphTLo.png&lt;/a&gt;\n &lt;a href=&quot;\nhttps://yuq.me/users/26/528/v05e21quhU.png&quot; rel=&quot;nofollow&quot; target=&quot;_NEW&quot;&gt;\nhttps://yuq.me/users/26/528/v05e21quhU.png&lt;/a&gt;\n &lt;a href=&quot;\nhttps://yuq.me/users/26/528/uJcP0xz1L2.png&quot; rel=&quot;nofollow&quot; target=&quot;_NEW&quot;&gt;\nhttps://yuq.me/users/26/528/uJcP0xz1L2.png&lt;/a&gt;\n &lt;a href=&quot;\nhttps://yuq.me/users/26/528/I3ZGxcLa4m.gif&quot; rel=&quot;nofollow&quot; target=&quot;_NEW&quot;&gt;\nhttps://yuq.me/users/26/528/I3ZGxcLa4m.gif&lt;/a&gt;\n &lt;a href=&quot;\nhttps://yuq.me/users/26/528/peGatb2Nv7.gif&quot; rel=&quot;nofollow&quot; target=&quot;_NEW&quot;&gt;\nhttps://yuq.me/users/26/528/peGatb2Nv7.gif&lt;/a&gt;\n &lt;a href=&quot;\nhttps://yuq.me/users/26/528/yaCX9PIV5G.png&quot; rel=&quot;nofollow&quot; target=&quot;_NEW&quot;&gt;\nhttps://yuq.me/users/26/528/yaCX9PIV5G.png&lt;/a&gt;","torrent":{"xt":"urn:btih:9da8c86419947188d7ac1f270041c7c2e55f4eea","amp;dn":"RoboCop+Official+Trailer+%282014%29+-+Samuel+L.+Jackson%2C+Gary+Oldman","amp;tr":["udp%3A%2F%2Ftracker.openbittorrent.com%3A80","udp%3A%2F%2Fopen.demonii.com%3A1337","udp%3A%2F%2Ftracker.coppersurfer.tk%3A6969","udp%3A%2F%2Fexodus.desync.com%3A6969"],"infoHash":"9da8c86419947188d7ac1f270041c7c2e55f4eea","infoHashBuffer":{"type":"Buffer","data":[157,168,200,100,25,148,113,136,215,172,31,39,0,65,199,194,229,95,78,234]},"announce":[],"urlList":[]}}